<?xml version="1.0" encoding="UTF-8"?>
<svg xmlns="http://www.w3.org/2000/svg" id="Layer_1" data-name="Layer 1" viewBox="0 0 24 24">
  <path d="M24,22v1h-4V15h1v7h3Zm-12.626-3.471c-.31-.117-1.189-.466-1.523-.67-.325-.231-.477-.568-.428-.948,.053-.399,.316-.723,.687-.845,.561-.185,1.121-.008,1.768,.553l.655-.756c-.915-.793-1.835-1.045-2.736-.747-.739,.244-1.262,.881-1.366,1.666-.096,.743,.218,1.45,.88,1.917,.492,.305,1.587,.721,1.699,.763,1.052,.425,1.013,1.204,.976,1.431-.104,.641-.669,1.105-1.342,1.105-.525,0-1.348-.368-1.761-.787l-.712,.702c.526,.533,1.595,1.085,2.473,1.085,1.166,0,2.146-.818,2.33-1.945,.131-.812-.206-1.959-1.599-2.523Zm7.21,3.34l.77,.77-.707,.707-.77-.77c-.395,.262-.868,.417-1.376,.417-1.378,0-2.5-1.122-2.5-2.5v-3c0-1.378,1.122-2.5,2.5-2.5s2.5,1.122,2.5,2.5v3c0,.509-.154,.981-.417,1.376Zm-1.441-.027l-.496-.496,.707-.707,.496,.496c.094-.196,.15-.412,.15-.643v-3c0-.827-.673-1.5-1.5-1.5s-1.5,.673-1.5,1.5v3c0,.827,.673,1.5,1.5,1.5,.231,0,.447-.057,.643-.15Zm-11.143-4.055v1.017c-2.173-.343-3.959-1.12-5-2.155v2.851c0,1.49,2.122,2.794,5,3.287v1.021c-3.509-.553-6-2.247-6-4.308V4.5C0,1.977,3.733,0,8.5,0s8.5,1.977,8.5,4.5V13h-1v-1.351c-1.419,1.411-4.213,2.351-7.5,2.351s-6.081-.94-7.5-2.351v2.851c0,1.49,2.122,2.794,5,3.287ZM1,4.5c0,1.897,3.435,3.5,7.5,3.5s7.5-1.603,7.5-3.5-3.435-3.5-7.5-3.5S1,2.603,1,4.5Zm0,5c0,1.897,3.435,3.5,7.5,3.5s7.5-1.603,7.5-3.5v-2.851c-1.419,1.411-4.213,2.351-7.5,2.351s-6.081-.94-7.5-2.351v2.851Z"/>
</svg>
